<svg xmlns="http://www.w3.org/2000/svg" width="579.596" height="589.45" viewBox="0 0 579.596 589.45">
  <g id="Group_2" data-name="Group 2" transform="translate(-121 -548)" opacity="0.44">
    <path id="Path_19" data-name="Path 19" d="M639.227,377.445c-.483-.691-.958-1.35-1.412-2.025a12.158,12.158,0,0,1-2.062-6.222,18.606,18.606,0,0,1,2.512-10.155,9.42,9.42,0,0,1,4.6-3.966c.345-.157.7-.3,1.166-.5-.239-.44-.429-.807-.63-1.166a22.591,22.591,0,0,1-2.692-6.794,12.21,12.21,0,0,1,3.319-11.269,17.133,17.133,0,0,1,11.889-5.433,29.84,29.84,0,0,1,8.784.84c.518.128,1.045.219,1.709.357.031-.6.08-1.086.081-1.575a33.28,33.28,0,0,1,1.957-11.424,25.917,25.917,0,0,1,9.477-12.4,19.493,19.493,0,0,1,10.768-3.675,15.13,15.13,0,0,1,11.156,3.881c1.406,1.276,2.669,2.71,4,4.073a3.415,3.415,0,0,0,1.156.869c-.084-.475-.165-.95-.25-1.424a8.168,8.168,0,0,1,2.413-7.448,7.386,7.386,0,0,1,4.416-1.9,22.432,22.432,0,0,1,7.652.18c.339.064.687.1,1.179.159a8.387,8.387,0,0,0,.211-1.332,7.294,7.294,0,0,1,3.747-6.552c1.977-1.245,3.93-2.506,6.327-2.816a15.19,15.19,0,0,1,8.553,1.034c.281.13.576.237.852.378a8.4,8.4,0,0,0,5.972.708,15.2,15.2,0,0,1,8.6.71,9.579,9.579,0,0,1,5.615,4.791c.1.206.235.394.392.656.314-.072.611-.118.9-.2a12.306,12.306,0,0,1,9.279.85,23.555,23.555,0,0,1,6.228,4.463,136.6,136.6,0,0,0,10.677,9.556c.3.244.582.512.884.756a16.135,16.135,0,0,1,5.871,10.413c.537,3.414.962,6.845,1.414,10.27,1.385,10.47,2.783,20.937,4.125,31.413.822,6.431,1.8,12.859,2.246,19.32a124.41,124.41,0,0,1,.051,16.533,39,39,0,0,1-5.574,17.268,64.052,64.052,0,0,1-9.04,12.118,65.144,65.144,0,0,1-5.192,4.669,19.712,19.712,0,0,0-4.432,5.208,8.9,8.9,0,0,0-.44,8.09,28.568,28.568,0,0,0,5.295,8.179c3.625,4.106,7.378,8.1,11,12.206a594.857,594.857,0,0,1,54.267,72.242,626.436,626.436,0,0,1,47.319,87.953A464.319,464.319,0,0,1,918.411,693.2a299.429,299.429,0,0,1,7.077,32.656c.636,4.1,1.032,8.247,1.7,12.347.9,5.545.91,11.141,1.15,16.725.332,7.723.6,15.448.978,23.17a74.636,74.636,0,0,0,1.942,12.064c2.244,10.439,4.511,20.873,6.711,31.322a169.029,169.029,0,0,1,3.334,42.288q-.3,6.869-.621,13.736a11.212,11.212,0,0,1-.229,1.381c-1.043.233-1.379.1-1.505-.658a8.41,8.41,0,0,1-.033-1.625c.219-7.337.51-14.673.652-22.012a132.406,132.406,0,0,0-2.471-27.458c-1.559-8.16-3.379-16.269-5.076-24.4-1.247-5.968-2.587-11.919-3.681-17.914a72.386,72.386,0,0,1-1.065-9.834c-.417-9.663-.632-19.335-1.038-29-.126-3.018-.543-6.03-.943-9.029-.593-4.463-1.362-8.9-1.928-13.369a177.127,177.127,0,0,0-3.724-18.719,432.194,432.194,0,0,0-22.865-68.307,628.464,628.464,0,0,0-61.583-111.635,564.861,564.861,0,0,0-49.5-62.4c-.71-.772-1.466-1.505-2.135-2.31a40.291,40.291,0,0,0-7.96-6.781,1.75,1.75,0,0,0-.194-.128c-4.127-2.165-8.439-3.515-13.177-2.979a8.474,8.474,0,0,0-5.039,2.43,42.574,42.574,0,0,1-9.4,7.019,25.377,25.377,0,0,1-10.538,3.063,44.99,44.99,0,0,1-25.986-5.832c-4.961-2.9-9.94-5.782-14.787-8.866-10.361-6.589-20.777-13.076-31.558-18.961a128.672,128.672,0,0,1-14.933-10.14c-1.744-1.3-3.468-2.628-5.155-4a28.3,28.3,0,0,1-6.862-8.453c-2.145-3.879-2.068-7.875-.677-11.944a6.13,6.13,0,0,1,1.971-2.836,1.709,1.709,0,0,0,.584-2.157c-1.191-3.216-1.1-6.556-.869-9.9C639.023,378.985,639.137,378.217,639.227,377.445Zm6.383-8.036a15.08,15.08,0,0,0-4.248,7.064,26.081,26.081,0,0,0-.4,10.524,6.812,6.812,0,0,0,2.2,4.248c5.109,4.542,10.022,9.314,15.284,13.668,9.661,8,19.508,15.776,29.295,23.626a172.9,172.9,0,0,0,23.212,15.947c7.836,4.418,15.947,8.187,24.745,10.27a32.62,32.62,0,0,0,10.927,1.113c5.256-.529,8.718-3.437,11.449-7.743a6,6,0,0,0-.71.087,36.554,36.554,0,0,1-12.031.735,45.892,45.892,0,0,1-12.3-2.88,105.8,105.8,0,0,1-21.176-11.156,219.407,219.407,0,0,1-21.861-16.655c-6.99-5.989-14.029-11.93-20.842-18.115-5.058-4.593-9.789-9.545-14.661-14.341-.06-.06-.068-.175-.1-.264a33.366,33.366,0,0,1,3.381,2.845c6.29,6.013,12.462,12.151,19.153,17.729,7.551,6.29,15,12.71,22.648,18.872a145.035,145.035,0,0,0,24.349,16.11c7.074,3.65,14.382,6.563,22.456,7.118A34.43,34.43,0,0,0,757.9,447.2a4.143,4.143,0,0,0,3.066-3.869c-.052-.056-.093-.134-.155-.165a6.4,6.4,0,0,0-.638-.277,104.9,104.9,0,0,1-20.424-10.334,232.135,232.135,0,0,1-22.266-16.7c-5.309-4.368-10.477-8.906-15.8-13.257a259.78,259.78,0,0,1-19.578-17.245c-1.8-1.806-3.695-3.52-5.547-5.278a1.311,1.311,0,0,1,.688.324c1.577,1.381,3.163,2.754,4.715,4.164,3.105,2.822,6.094,5.778,9.3,8.478q13.773,11.594,27.691,23.013a228.527,228.527,0,0,0,19.537,14.715,105.462,105.462,0,0,0,21.327,11.112c.415.153.842.281,1.346.448a3.466,3.466,0,0,0-1.216-3.363c-.749-.617-1.592-1.129-2.291-1.794-2.727-2.6-5.46-5.194-8.1-7.88-2.122-2.161-4.116-4.445-6.158-6.686a83.82,83.82,0,0,0-12.948-11.348,54.236,54.236,0,0,0-14.729-7.139,19.221,19.221,0,0,1-6.705-3.871,102.629,102.629,0,0,1-8.964-8.823q-2.973-3.36-5.972-6.7a82.1,82.1,0,0,0-17.128-14.471,42.143,42.143,0,0,0-9.11-4.393,24.7,24.7,0,0,0-14.566-.549c-.427.115-.838.293-1.09.382,1.633,1.744,3.208,3.454,4.816,5.136a39.995,39.995,0,0,1,4.754,5.2c-3.656-3.206-7.192-6.536-10.609-9.911-2.07.6-4.125,1.848-4.775,2.876.145.165.293.345.454.51a185.579,185.579,0,0,0,16.436,15.163c1.208.974,2.386,1.99,3.563,3a2.447,2.447,0,0,1,.372.568A148.861,148.861,0,0,1,645.61,369.409ZM778.4,434.883c.161-.085.332-.157.483-.256a25.578,25.578,0,0,0,10.355-13.239c2.153-6.059,2.83-12.38,3.2-18.732a91.623,91.623,0,0,0-.943-17.411q-.791-5.932-1.79-11.833c-1.016-5.993-2.11-11.975-3.19-17.956-.786-4.345-1.61-8.681-2.407-13.024q-1.49-8.111-2.96-16.226-1.685-9.2-3.391-18.391a4.559,4.559,0,0,0-.675-2.157,22.967,22.967,0,0,0-7.9-5.848c-7.184-3.064-14.907,2.923-14.781,9.649a39.176,39.176,0,0,0,1.317,9.76c1.15,4.184,2.438,8.33,3.617,12.5,3.848,13.614,6.825,27.439,10,41.215,1.653,7.169,3.076,14.391,4.506,21.61.849,4.292,1.619,8.606,2.219,12.939.5,3.642.743,7.324,1.038,10.993a47.324,47.324,0,0,1-1.693,17.272c-.093.318-.155.646-.233.968l.248.161a13.287,13.287,0,0,0,1.17-1.191,22.834,22.834,0,0,0,3.543-7.415,69.463,69.463,0,0,0,2.52-18.026,143.139,143.139,0,0,0-.636-18.841c-.335-3.355-.578-6.72-1.01-10.062q-.771-5.988-1.806-11.942c-.908-5.184-1.8-10.378-2.964-15.507-1.835-8.074-3.893-16.1-5.855-24.143-.171-.7-.338-1.4-.506-2.106a1.065,1.065,0,0,1,.456.638c.819,2.783,1.67,5.559,2.438,8.356,2.3,8.4,4.219,16.9,5.875,25.453.774,3.99,1.441,8,2.085,12.012.462,2.867.846,5.749,1.187,8.633.312,2.653.547,5.318.77,7.981.244,2.936.574,5.875.625,8.817.1,5.974.336,11.961-.421,17.916-.307,2.419-.621,4.841-1.074,7.234A38.733,38.733,0,0,1,778.4,434.883ZM671.507,315.7c.37.4.708.77,1.053,1.133,6.313,6.647,12.72,13.2,18.711,20.152,8.323,9.659,16.325,19.556,23.663,29.991,5.809,8.261,11.7,16.461,17.57,24.679a319.892,319.892,0,0,0,24.58,30c.2.221.436.413.655.617a8.642,8.642,0,0,0-.943-1.938c-5.072-8.367-10.088-16.766-14.6-25.457-4.653-8.968-8.474-18.306-12.206-27.679-4.16-10.45-8.2-20.949-12.337-31.407-4.015-10.136-9.374-19.4-17.264-27.1-3-2.927-6.292-4.892-10.542-5.012a13.705,13.705,0,0,0-5.155.751,90.039,90.039,0,0,1,7.388,9.49,3.368,3.368,0,0,1-1.108-.9c-2.124-2.477-4.236-4.965-6.36-7.44-.271-.318-.6-.59-.857-.844a5.893,5.893,0,0,0-2.931,1.418A172.736,172.736,0,0,1,694.882,324.4a5.412,5.412,0,0,1-1.98-2.017c-3.833-5.142-7.809-10.165-12.054-14.973-.275-.312-.57-.605-.83-.881C677.135,307.9,673,312.35,671.507,315.7Zm75.832-.512c2.006,8.09,4.263,16,5.6,24.128a4.9,4.9,0,0,1-.547-1.332q-2.688-10.639-5.369-21.277c-.078-.31-.217-.605-.363-1a6.678,6.678,0,0,0-2.632,2.764,20.85,20.85,0,0,0-1.369,8.22,48.879,48.879,0,0,0,4.009,17.619c.78,1.821,1.558,3.642,2.312,5.473a47.093,47.093,0,0,1,3.739,20.693c-.186,3.412-.574,6.816-.692,10.229a99.353,99.353,0,0,0-.037,11.992c.692,7.933,2.426,15.646,6.3,22.733a124.478,124.478,0,0,1,7.842,16.632,17.483,17.483,0,0,0,1.263,2.277,5.147,5.147,0,0,0,.328-.972c.176-2.164.409-4.327.477-6.5a68.471,68.471,0,0,0-.632-10.559,122.008,122.008,0,0,0-2.492-13.346c-1.261-5.266-2.6-10.512-3.908-15.769-.109-.44-.178-.888-.268-1.332,1.057,3.072,1.887,6.168,2.725,9.261,2.32,8.561,4.579,17.142,5.051,26.054.165,3.09.076,6.2.008,9.3-.035,1.62-.272,3.235-.419,4.874a4.576,4.576,0,0,0,5.667,1.982c.109-.271.25-.588.361-.914a40.068,40.068,0,0,0,2.056-10.939,77.847,77.847,0,0,0-.481-13.139q-.646-5.362-1.571-10.693c-.987-5.605-1.994-11.212-3.173-16.781-1.571-7.429-3.266-14.83-5-22.221-2.042-8.712-4.118-17.417-6.3-26.095-1.183-4.694-2.62-9.323-3.961-13.978a67.639,67.639,0,0,1-2.17-10.852Zm-76.2,1.158a23.231,23.231,0,0,0-2.019,5.65,38.214,38.214,0,0,0,.146,17.32,15.256,15.256,0,0,0,1.451,4.267,68.8,68.8,0,0,0,4.829,7.264,140,140,0,0,0,18.7,19.78q13.979,12.333,28.058,24.551a275.845,275.845,0,0,1,28.184,27.951c3.8,4.4,8,8.464,12.023,12.673.312.326.69.594,1.177,1.007a6.235,6.235,0,0,0,.563-1.364,5.263,5.263,0,0,0-.537-3.615,50.425,50.425,0,0,0-3.136-4.744c-1.912-2.4-3.99-4.661-6-6.98-4.215-4.876-8.577-9.636-12.613-14.655-8.078-10.051-15.668-20.48-22.92-31.14a413.1,413.1,0,0,0-35.484-44.8c-3.933-4.348-7.995-8.581-12-12.861A3.269,3.269,0,0,0,671.138,316.347ZM761.76,426.541l.184-.089c-.19-.448-.353-.912-.574-1.344-2.364-4.637-4.756-9.257-7.1-13.9a171.6,171.6,0,0,1-9.723-23.816,125.656,125.656,0,0,1-4.29-18.239c-.861-5.053-1.594-10.136-2.712-15.132a188.785,188.785,0,0,0-7.853-26.147,137.624,137.624,0,0,0-6.959-16.362c-.033-.058,0-.149,0-.227a32.356,32.356,0,0,1,2.776,4.851,182.165,182.165,0,0,1,10.049,27.491c.149.553.357,1.09.535,1.635-.01-2.324-.246-4.6-.38-6.885-.18-3.061-.359-6.123-.386-9.186a41.278,41.278,0,0,0-3.66-17.177c-2.392-5-5.925-8.7-11.566-9.958a20.957,20.957,0,0,0-9.24-.167,5.3,5.3,0,0,0-3.435,2.4,7.012,7.012,0,0,0-.758,5.925,43.417,43.417,0,0,0,4.676,11,96.783,96.783,0,0,1,7.031,14.168c3.648,9.236,7.233,18.5,10.9,27.726,3.65,9.2,7.293,18.4,11.651,27.291,6.024,12.289,13.185,23.934,20.373,35.558A5.957,5.957,0,0,0,761.76,426.541ZM740.072,456.8l.031-.252c-.522-.111-1.042-.225-1.563-.336s-1.063-.217-1.592-.332a84.97,84.97,0,0,1-19.537-7.052,162.153,162.153,0,0,1-30.379-19.814c-7.108-5.729-14.064-11.651-21.277-17.239A251.086,251.086,0,0,1,642.427,391.4a1.329,1.329,0,0,0-.31-.211c-.628.741-1.22,1.395-1.759,2.087a7.75,7.75,0,0,0-1.3,1.895,12.006,12.006,0,0,0,.351,10.256,25.529,25.529,0,0,0,6.866,8.431c3.53,2.735,7.108,5.411,10.7,8.072a87.478,87.478,0,0,0,10.13,6.422c9.781,5.359,19.3,11.164,28.669,17.208,5.1,3.286,10.3,6.369,15.551,9.407a45.071,45.071,0,0,0,23.593,6.158,26.066,26.066,0,0,0,14.283-4.315c.277-.182.533-.4,1.016-.766-1.521.289-2.774.495-4.011.766a31.183,31.183,0,0,1-7.853.634,50.558,50.558,0,0,1-8.15-1.208,82.757,82.757,0,0,1-21.4-7.314,220.292,220.292,0,0,1-22.66-13.133c-12.3-8.233-24.215-17-35.988-25.971-.726-.553-1.424-1.14-2.137-1.711a1.7,1.7,0,0,1,.956.374c7.411,5.326,14.849,10.613,22.223,15.988a282.786,282.786,0,0,0,29.757,19.37,133.067,133.067,0,0,0,15.224,7.531,96.217,96.217,0,0,0,19.18,5.068C736.9,456.7,738.5,456.689,740.072,456.8Zm38.294-149.79c.049.5.052.85.116,1.187q1.312,6.907,2.638,13.808c1.043,5.477,2.106,10.953,3.125,16.436,1.088,5.863,2.134,11.736,3.2,17.6.875,4.8,1.841,9.587,2.613,14.405.894,5.582,1.621,11.193,2.422,16.791a78.854,78.854,0,0,1,.813,12.068c-.037,3.173-.365,6.346-.617,9.517a55.076,55.076,0,0,1-1.66,9.609,29.53,29.53,0,0,1-6.812,12.95c-.179.192-.345.4-.518.6a18.05,18.05,0,0,0,2.63-2.308,64.889,64.889,0,0,0,9.24-12.545,37.012,37.012,0,0,0,4.987-15.889,126.19,126.19,0,0,0-.035-16.067c-.4-6.034-1.321-12.039-2.091-18.046-.921-7.2-1.942-14.39-2.886-21.589-.89-6.775-1.722-13.557-2.607-20.334a15.376,15.376,0,0,0-5.865-10.749c-.37-.283-.714-.6-1.065-.906q-3.6-3.136-7.2-6.274A4.131,4.131,0,0,0,778.366,307.014ZM639.649,374.939c.188-.126.277-.153.306-.211.134-.279.246-.568.374-.85a16.908,16.908,0,0,1,7.242-8.111,25,25,0,0,1,14.75-2.861,30.609,30.609,0,0,1,9.387,2.591c.369.161.749.291,1.123.434a1.75,1.75,0,0,0-.537-.82,15.674,15.674,0,0,1-5.468-11.323,1.907,1.907,0,0,0-.605-1.168c-1.338-1.239-2.733-2.419-4.1-3.623-.334-.291-.654-.6-.981-.9l.2-.235c1.984,1.069,3.561,2.713,5.437,4.191l.588-3.747-12.153-9.952.178-.223a122.349,122.349,0,0,1,12.248,9.5c.219-.446.336-.733.495-.993a4.238,4.238,0,0,0,.26-3.78,49.19,49.19,0,0,1-1.325-5.539c-.26-1.284-.384-2.6-.582-4-.762-.308-1.493-.671-2.262-.9a23.056,23.056,0,0,0-7.605-.848,15.958,15.958,0,0,0-10.834,4.494,10.684,10.684,0,0,0-3.1,11.174,26.525,26.525,0,0,0,2.952,6.435c.834,1.418.557,2.122-.966,2.63-.295.1-.6.18-.883.295a7.456,7.456,0,0,0-3.848,3.072,16.436,16.436,0,0,0-2.475,9.55A9.842,9.842,0,0,0,639.649,374.939Zm31.085-29.966c-.316.774-.549,1.466-.871,2.116a14.418,14.418,0,0,0-1.086,8.534,12.171,12.171,0,0,0,3.187,6.736A24.272,24.272,0,0,0,674,364.436c3.71,3.189,7.461,6.331,11.172,9.517,2.236,1.922,4.523,3.8,6.616,5.871,2.481,2.457,4.822,5.06,7.145,7.669a133.866,133.866,0,0,0,10.225,10.52,21.725,21.725,0,0,0,7.931,4.705,56.4,56.4,0,0,1,18.651,10.291,123.183,123.183,0,0,1,12.44,12.244,89.855,89.855,0,0,0,8.771,9.005,29.157,29.157,0,0,0,3.77,2.485,6.5,6.5,0,0,0,1.6.456.867.867,0,0,0-.268-.634c-4.8-4.488-9.161-9.4-13.525-14.3a186.079,186.079,0,0,0-14.339-15.13q-16.516-14.82-33.182-29.475c-6.657-5.844-13.336-11.649-19.262-18.261a82.907,82.907,0,0,1-10.578-13.864A5.4,5.4,0,0,0,670.735,344.973Zm66.059-53.248-.169.244c.493,1.546,1.02,3.082,1.47,4.641q.658,2.287,1.185,4.612c.361,1.583.65,3.183.962,4.775a19.22,19.22,0,0,1,.594,4.674c-1.643-6.426-2.653-13.018-5.239-19.147a13.189,13.189,0,0,0-5.08.029,14.609,14.609,0,0,0-5.316,2.556c-2.494,1.623-3.1,3.111-2.737,6.837a1.173,1.173,0,0,0,.165.161,1.678,1.678,0,0,0,.31.159c4.43,1.649,7.448,4.9,9.624,8.906a42.348,42.348,0,0,1,4.634,13.812c.114.737.256,1.47.384,2.205l.235.014c.27-.749.537-1.5.813-2.25a20.021,20.021,0,0,1,4.727-7.8,21.725,21.725,0,0,1,5.047-3.518c1.437-.758,2.867-1.526,4.407-2.347-.37-5.1,2.068-8.742,6.211-11.424a7.586,7.586,0,0,0-.256-.729,7.822,7.822,0,0,0-4.469-3.867c-3.637-1.428-7.287-1.051-11.017-.078.368,1.569.8,3.1,1.071,4.649a10.965,10.965,0,0,1,.291,4.736A71.586,71.586,0,0,0,742.482,294C740.506,293.208,738.65,292.465,736.794,291.724Zm14.455,108.57.149-.048-.1-.657c-.34-2.341-.815-4.672-1-7.027a118.272,118.272,0,0,1,.524-19.075,48.5,48.5,0,0,0-.683-14.256,63.314,63.314,0,0,0-4.122-12.1,54.347,54.347,0,0,1-3.79-11.6,36.171,36.171,0,0,1-.586-11.694c.136-.978.343-1.945.518-2.917a12.215,12.215,0,0,0-1.48,2.76,38.817,38.817,0,0,0-2.983,15.206c.037,1.786.118,3.571.225,5.353a35.955,35.955,0,0,0,.357,3.825c.444,2.64,1.009,5.258,1.47,7.9.979,5.582,1.885,11.176,2.892,16.752a129.759,129.759,0,0,0,8.144,26.679C750.921,399.7,751.1,399.992,751.249,400.295Z" transform="translate(-514.726 258.457)" fill="#4c313c"/>
    <g id="Group_1" data-name="Group 1" transform="translate(264.58 -173.16) rotate(43)">
      <path id="Path_20" data-name="Path 20" d="M985.709,819.923c-.868-.278-1.091-1-1.39-1.634-2.46-5.227-4.855-10.486-7.369-15.686a312.975,312.975,0,0,0-21.219-37.536,183.241,183.241,0,0,0-13.1-17.211c-10.482-12.291-19.65-25.528-28.509-39-5.792-8.812-11.586-17.626-17.538-26.331a241.607,241.607,0,0,0-28.669-34.189,645.1,645.1,0,0,0-63.249-56.192,35.723,35.723,0,0,0-10.99-6.12,12.03,12.03,0,0,0-8.89.27,16.493,16.493,0,0,0-3.073,1.95,30.475,30.475,0,0,0-2.409,2.237,33.32,33.32,0,0,1-20.221,9.2,173.916,173.916,0,0,1-17.683.773c-7.675-.013-15.343.177-23.014.632-14.745.876-29.183,3.673-43.591,6.693-8.919,1.87-17.885,3.452-26.942,4.478a39.936,39.936,0,0,1-9.722.171c-4.84-.636-8.454-2.993-10.249-7.706a10.113,10.113,0,0,1,3.494-12.182,36.354,36.354,0,0,1,11.236-5.691c2.946-.878,5.937-1.641,8.947-2.268a9.214,9.214,0,0,0,6.028-4.235,5.876,5.876,0,0,0,.28-.607c-.621-.069-1.139-.147-1.664-.183a104.563,104.563,0,0,1-18.389-2.6c-12.445-3.1-21.2-10.729-26.839-22.064-2.54-5.1-2.509-10.406-.609-15.733a9.9,9.9,0,0,1,3.482-4.716,32.277,32.277,0,0,1,3.031-2.064,9.9,9.9,0,0,0,4.53-5.556,53.947,53.947,0,0,1,4.633-10.516c1.03-1.691,2.142-3.334,3.281-4.954,2.959-4.2,7.243-6.066,12.163-6.632a55.862,55.862,0,0,1,5.861-.072c.068-.183.232-.556.345-.946a57.313,57.313,0,0,1,4.046-9.947,30.274,30.274,0,0,1,6.66-8.7c1.712-1.559,3.551-2.982,5.333-4.467l.79-.659a5.9,5.9,0,0,0-.242-.611c-3.494-6.308-3.623-12.85-1.413-19.577a21.663,21.663,0,0,1,11.127-12.847,33.543,33.543,0,0,1,12.692-3.608c1.639-.143,3.273-.331,4.914-.449a9.273,9.273,0,0,0,4.128-1.455c2.207-1.319,4.4-2.677,6.71-3.8a38.827,38.827,0,0,1,21.672-3.6c.419.046.834.122,1.249.192.373.061.744.128,1.167.2.289-.249.577-.484.855-.735,1.535-1.382,3.09-2.742,4.583-4.17a3.123,3.123,0,0,0,.754-1.39c.213-.769.266-1.58.421-2.365a8.679,8.679,0,0,1,5.453-6.649,6.632,6.632,0,0,1,7.319,1.207,15.026,15.026,0,0,1,4.17,6.251,52.777,52.777,0,0,1,2.778,11.152c1.1,7.763,2.138,15.537,3.058,23.325,1.051,8.875,1.91,17.778,3.69,26.55a102.955,102.955,0,0,0,4.372,15.705,50.466,50.466,0,0,0,3.8,7.984c2.957,5.01,5.8,10.09,8.768,15.095,1.5,2.538,3.147,4.994,4.775,7.456a87.629,87.629,0,0,1,9.126,16.887,42.829,42.829,0,0,1,3,12.369,15.318,15.318,0,0,1-.661,5.5,7.475,7.475,0,0,0,.126,5.086,24.288,24.288,0,0,0,2.5,4.941,71.145,71.145,0,0,0,5.5,6.767,85.122,85.122,0,0,0,10.175,9.292,641.189,641.189,0,0,1,61.96,56.114,263.551,263.551,0,0,1,31.5,39.856q9.313,14.245,18.78,28.393a260.318,260.318,0,0,0,19.044,25.4c13.364,15.51,23.974,32.8,33.188,51,2.953,5.832,5.767,11.733,8.583,17.633.815,1.708,1.436,3.509,2.1,5.284C986.463,818.914,986.608,819.576,985.709,819.923ZM687.188,509.458l.114-.046c3.837,3.427,7.6,6.938,11.523,10.259,10.6,8.972,21.719,17.266,33.089,25.223a164.4,164.4,0,0,0,27.253,15.663c8.079,3.606,16.209,7.072,24.918,8.911a8.032,8.032,0,0,0,3.749.371,25.494,25.494,0,0,0-1.441-2.772,36.236,36.236,0,0,0-8.608-9.191,140.9,140.9,0,0,0-17.622-10.9c-2.511-1.291-5.008-2.607-7.509-3.92A167.381,167.381,0,0,1,718.7,520.069c-3.115-2.774-5.994-5.807-8.972-8.732a9.317,9.317,0,0,1-.743-.941,1.152,1.152,0,0,1,.718.4,163.866,163.866,0,0,0,12.555,11.384A176.992,176.992,0,0,0,752.8,542.139c6.836,3.57,13.747,7.005,20.151,11.339a.994.994,0,0,0,.316.078l.116-.143c-.183-.158-.364-.318-.546-.476a123.521,123.521,0,0,0-10.615-8.393c-3.743-2.6-7.428-5.276-11.146-7.906a103.313,103.313,0,0,1-21.3-20.246,63.835,63.835,0,0,0-4.823-5.356q-4.154-4.164-8.479-8.159A376,376,0,0,0,686.99,478.8c-1.38-1.034-2.814-2-4.029-2.86-1.575.449-2.936.88-4.322,1.215-1.31.316-2.643.535-3.97.783a18.926,18.926,0,0,0-7.424,2.753c-2.285,1.575-4.433,3.353-6.634,5.048a2.368,2.368,0,0,0-.337.5c1.137,1.516,2.2,3.09,3.424,4.53,2.568,3.018,5.219,5.967,7.835,8.945.276.314.535.642.8.965l-.278.215a93.01,93.01,0,0,1-12.468-14.216,32.053,32.053,0,0,0-4.785,5.705c12.976,14.9,27.363,27.957,43.955,38.528a4.19,4.19,0,0,1-1.255-.524c-2.78-1.752-5.636-3.4-8.311-5.3a190.629,190.629,0,0,1-33.94-30.969c-.257-.3-.537-.579-.948-1.015-2.845,5.537-5.312,10.948-5.948,17.222.308.265.674.552,1,.874,1.54,1.506,3.058,3.029,4.6,4.528a284.986,284.986,0,0,0,46.455,36.742A216.89,216.89,0,0,0,733.935,570.1c10.116,4.149,20.461,7.466,31.411,8.665a49.3,49.3,0,0,0,13.964-.318,35.149,35.149,0,0,0,5.922-1.733,4.723,4.723,0,0,0,2.949-3.574c-1.135.291-2.045.585-2.976.752a40.989,40.989,0,0,1-12.963-.1,63.289,63.289,0,0,1-13.262-3.545c-10.684-3.968-20.507-9.583-30.059-15.718-.392-.251-.737-.573-1.106-.863,2.4,1.285,4.716,2.643,7.034,4a153.65,153.65,0,0,0,24.035,11.737,57.979,57.979,0,0,0,14.509,3.7,80.762,80.762,0,0,0,9.973.2,9.321,9.321,0,0,0,4.749-1.346l-.2-1.034a24.315,24.315,0,0,1-2.791-.375c-3.22-.813-6.485-1.51-9.621-2.576a168.432,168.432,0,0,1-38.875-18.9c-9.4-6.213-18.38-13-27.264-19.922a205.174,205.174,0,0,1-19.654-17.091C688.86,511.208,688.028,510.328,687.188,509.458ZM790.2,568.693a1.507,1.507,0,0,0,1.125-1.407,18.153,18.153,0,0,0,.339-3.383,36.042,36.042,0,0,0-2.462-11.07,82.2,82.2,0,0,0-9.437-17.854c-2.285-3.443-4.594-6.872-6.851-10.337a104.592,104.592,0,0,1-10.366-19.663,25.724,25.724,0,0,0-1.855-3.728c-3.66-6.262-7.454-12.445-11.021-18.759a122.457,122.457,0,0,1-13.538-34.452,87.2,87.2,0,0,1-2.271-15.455,14.447,14.447,0,0,0-.255-1.706c-2.028,1.015-8.471,7.443-9.509,9.509a181.339,181.339,0,0,0,12.875,32.679c-6.141-9.924-10.069-20.792-13.49-31.887a10.581,10.581,0,0,0-2.881,5.1,44.19,44.19,0,0,0-1.066,11.8,56.447,56.447,0,0,0,6.055,23.707,87.263,87.263,0,0,0,7.759,12.142,110.822,110.822,0,0,1,11.5,19.756c1.866,4.1,3.907,8.142,6.167,12.039a77.026,77.026,0,0,0,17.1,20.663q3.88,3.251,7.664,6.615a90.922,90.922,0,0,1,12.007,12.645,6.573,6.573,0,0,0,.674.621,7.521,7.521,0,0,0-.154-1.061c-.733-2.327-1.373-4.692-2.247-6.967a82.965,82.965,0,0,0-10.042-18.1q-11.291-15.957-22.8-31.763a287.713,287.713,0,0,1-18.726-28.7,100.388,100.388,0,0,1-6.422-13.448c-.2-.526-.31-1.085-.461-1.628l.246-.08c.583,1.293,1.158,2.593,1.752,3.882a182.352,182.352,0,0,0,15.638,27c5.6,8.128,11.455,16.074,17.188,24.109,5.265,7.38,10.632,14.694,15.745,22.182,5.48,8.02,9.9,16.571,11.676,26.266A3.273,3.273,0,0,0,790.2,568.693Zm-95.252-8.25.086-.3c-.438-.31-.878-.617-1.314-.929-3.884-2.763-7.805-5.476-10.979-9.1a4.367,4.367,0,0,0-1.674-1.078c-1.727-.678-3.481-1.278-5.236-1.885a56.275,56.275,0,0,1-17.066-8.922c-3.418-2.729-6.584-5.693-8.635-9.629a4.159,4.159,0,0,0-2.348-2.144c-3.281-1.182-6.571-2.334-9.857-3.5-.276-.1-.546-.208-.819-.314a3.332,3.332,0,0,1,1.55.023,58.277,58.277,0,0,1,9.208,3.043,7.636,7.636,0,0,0,.794.238,36.219,36.219,0,0,1-1.815-19.069,9.507,9.507,0,0,0-1.121-.272,18.066,18.066,0,0,0-6.152.413,9.452,9.452,0,0,0-6.222,4.779,24.335,24.335,0,0,0-3.283,15.537,66.115,66.115,0,0,1,.4,6.685,11.271,11.271,0,0,1-4.454,9.6,55.767,55.767,0,0,0-4.977,4.671,16.251,16.251,0,0,0-2.395,3.09,10.661,10.661,0,0,0-1.388,7.529,47.836,47.836,0,0,0,7.018,3.572,136.913,136.913,0,0,0,24.128,7.673,91.421,91.421,0,0,0,15.484,2.146,2.371,2.371,0,0,0,1.843-.59,38.3,38.3,0,0,1,8.136-5.537,6.107,6.107,0,0,0,.684-.476c-5.822-1.769-11.582-3.425-17.279-5.274a98.247,98.247,0,0,1-16.714-6.946.688.688,0,0,1,.436.078,214.448,214.448,0,0,0,33.951,11.268,3.217,3.217,0,0,0,2.207-.187c1.54-.685,3.117-1.283,4.678-1.921.221-.091.434-.2.92-.436a123.908,123.908,0,0,1-26.5-10.636c.154-.105.2-.158.221-.147.348.139.7.274,1.038.432,8.332,3.854,16.748,7.481,25.71,9.646a6.65,6.65,0,0,0,2.357.049c1.921-.242,3.827-.613,5.746-.868C692.516,560.589,693.733,560.54,694.944,560.443ZM779.9,586.77a39.214,39.214,0,0,1-7.546,2.563,73.7,73.7,0,0,1-19.6,1.34c-2.818-.109-5.636-.413-8.433-.784-4.044-.537-8.092-1.1-12.1-1.866a143.175,143.175,0,0,1-17.205-4.478,113.192,113.192,0,0,1-23.11-10.051c-.371-.221-.731-.461-1.1-.691a.9.9,0,0,1,.621.131,136.368,136.368,0,0,0,22.06,9.339,149.735,149.735,0,0,0,26.493,6.228c3.5.472,7.017.91,10.541,1.169a86.048,86.048,0,0,0,12.763.105,53.59,53.59,0,0,0,11.306-1.858,20.907,20.907,0,0,0,5.636-2.521c.434-.286.855-.577.758-1.194a1.137,1.137,0,0,0-1.034-.975,14.35,14.35,0,0,0-3-.2c-2.938.236-5.861.644-8.8.866a74.751,74.751,0,0,1-17.039-.619,124.179,124.179,0,0,1-25.065-6.472,119.486,119.486,0,0,1-26.028-13.416,4.828,4.828,0,0,0-3.075-.952c-2.1.105-4.208.2-6.312.312a7.5,7.5,0,0,0-1.061.211l-.046.261c10.221,6.352,21.127,11.365,32.15,16.154a147.715,147.715,0,0,1-17.195-7.146,158.6,158.6,0,0,1-16.4-9.046c-7.5,1.618-15.337,9.49-17.565,15.179.487.208.969.451,1.474.623,6.091,2.081,12.163,4.214,18.279,6.213,6.8,2.22,13.637,4.318,20.623,5.861q6.464,1.428,12.991,2.563a95.162,95.162,0,0,0,10.13,1.363c4.667.3,9.355.293,14.035.385,1.643.034,3.292.046,4.931-.055,3.443-.211,6.893-.4,10.318-.8a73.846,73.846,0,0,0,8.064-1.426C775.081,592.238,777.65,589.7,779.9,586.77ZM680.145,463.249l-.192.2a10.927,10.927,0,0,1-1.156-1.112c-2.51-3.227-5-6.472-7.492-9.711-.246-.32-.48-.651-.79-1.07-4.275,3.658-6.162,8.387-6.99,13.631a22.177,22.177,0,0,0,2.378,13.776c1.468-.659,2.744-1.312,4.08-1.811,1.314-.491,2.687-.828,4.149-1.268-1.409-1.679-3.062-2.949-3.806-4.947l4.895,4.9c1.641-.36,3.2-.71,4.758-1.04a3.425,3.425,0,0,0,2.26-1.672c1.152-1.813,2.325-3.62,3.6-5.354a21.386,21.386,0,0,1,12.715-8.163,11.033,11.033,0,0,1,2.759-.274,17.056,17.056,0,0,1,9.216,3.113c.4.261.8.518,1.215.79.48-2.112.948-4.031,1.329-5.967a2.338,2.338,0,0,0-.251-1.321c-1.474-3.17-2.986-6.325-4.48-9.484-.109-.232-.181-.482-.27-.722,2.4,2.923,3.77,6.39,5.489,9.933,3-7.142,6.177-13.856,11.392-19.61-.724-.143-1.167-.276-1.617-.312a39.037,39.037,0,0,0-10.213.4,41.45,41.45,0,0,0-15.891,6.6,12.1,12.1,0,0,1-6.259,2.131c-.885.051-1.767.133-2.65.206a33.663,33.663,0,0,0-11.876,2.8c-.408.194-.807.409-1.375.7,1.721,2.673,3.368,5.232,5.015,7.789-2.433-2.06-3.918-4.838-5.775-7.479-1.093.725-2.091,1.388-3.269,2.171C674.148,455.236,677.148,459.242,680.145,463.249Zm27.99,136.627a3.273,3.273,0,0,0-.552-.152c-4.638-.1-9.275-.284-13.911-.267-3.871.015-7.742.234-11.611.423-2.435.12-4.869.316-7.3.539-3.264.3-6.525.657-9.785.994-3.6.371-7.209.613-10.779,1.154-4.9.739-9.768,1.691-14.644,2.591-1.464.27-2.9.661-4.354,1l-.088-.232a4.034,4.034,0,0,1,.687-.4q1.074-.363,2.169-.661a122.66,122.66,0,0,1,18.62-3.222c6.388-.731,12.788-1.331,19.181-2.037,5.569-.615,11.162-.859,16.756-.952,5.141-.084,10.286.055,15.43.116,3.837.046,7.675.129,11.51.19.337.006.676-.019,1.013-.025,7.167-.156,14.334-.411,21.5-.436a160.48,160.48,0,0,0,17.428-.84,30.738,30.738,0,0,0,9.516-2.449c.427-.2.834-.436,1.251-.655-1.862.107-3.631.478-5.419.64-3.937.356-7.879.666-11.826.885-2.605.143-5.223.126-7.835.131-2.694,0-5.387,0-8.079-.093-2.317-.084-4.627-.333-6.944-.465-7.2-.411-14.4-.79-21.6-1.2-10.906-.625-21.807-1.329-32.717-1.889-9.859-.505-19.724-.891-29.587-1.259a38.834,38.834,0,0,0-6.059.276c-3.334.4-6.091,2.11-8.639,4.2a6.426,6.426,0,0,0-2.306,6.674,9.864,9.864,0,0,0,8.3,7.972,32.483,32.483,0,0,0,9.206.01,233.556,233.556,0,0,0,24.964-4.021c9.406-1.992,18.831-3.871,28.334-5.352C702.619,600.647,705.281,600.289,708.135,599.877Zm73.66-20.79-.076-.217c-.234.034-.472.051-.7.1a37.62,37.62,0,0,1-8.134.963,70.431,70.431,0,0,1-13.085-1.074,114.254,114.254,0,0,1-13.945-3.486,179.539,179.539,0,0,1-32.571-14.288,270.228,270.228,0,0,1-63.812-48.919c-.305-.314-.63-.611-1.074-1.04a5.177,5.177,0,0,0-.162.815c-.017,4.8.505,9.494,2.576,13.93a30.094,30.094,0,0,0,8.9,10.7,55.46,55.46,0,0,0,17.087,8.877c1.716.585,3.448,1.141,5.109,1.853a6.963,6.963,0,0,1,2.359,1.624,41.053,41.053,0,0,0,5.505,5.025,173.327,173.327,0,0,0,19.248,12.837,119.517,119.517,0,0,0,33.5,12.961,92.236,92.236,0,0,0,18.138,2.5c2.485.055,4.973-.12,7.46-.158a39.848,39.848,0,0,0,12.011-2.243A16.937,16.937,0,0,0,781.8,579.087ZM755.576,475.638a8.523,8.523,0,0,0-.006-.956c-.72-6.283-1.392-12.572-2.193-18.844q-1.232-9.658-2.692-19.286a44.051,44.051,0,0,0-2.654-10.006,12.886,12.886,0,0,0-3.338-4.861,4.82,4.82,0,0,0-5.406-.939,6.837,6.837,0,0,0-4.227,4.876,18.733,18.733,0,0,0-.59,4.5,55.108,55.108,0,0,0,.512,7.165,118.377,118.377,0,0,0,7.856,29.18c4.57,10.927,10.552,21.1,16.761,31.15a5.524,5.524,0,0,0,.625.653c-.187-.71-.307-1.11-.4-1.518-.99-4.4-1.969-8.8-2.968-13.2a28.431,28.431,0,0,0-1.08-4.271,193.478,193.478,0,0,1-11.746-44.555,3.253,3.253,0,0,1,.061-1.864C746.641,447.464,749.925,461.853,755.576,475.638Zm-37.217-24.829-.242-.055c-.183.407-.377.809-.545,1.219a45.4,45.4,0,0,0-3.414,18.393,65.52,65.52,0,0,0,5.487,25.3,92.642,92.642,0,0,0,27.906,35.905c3.313,2.607,6.771,5.029,10.168,7.532.286.213.609.375.916.562a3.383,3.383,0,0,0-.767-1.3,81.644,81.644,0,0,1-9.583-13.957c-1.822-3.422-3.58-6.887-5.2-10.411a103.734,103.734,0,0,0-10.4-17.917c-1.611-2.216-3.212-4.446-4.718-6.735-7.443-11.3-10.874-23.66-9.667-37.218C718.339,451.689,718.339,451.247,718.358,450.809Zm-35.1,24.419a326.615,326.615,0,0,1,41.506,34.254c-.529-1.139-1.16-2.18-1.771-3.233a73.787,73.787,0,0,1-8.13-18.6,10.226,10.226,0,0,0-2.512-4.562A194.227,194.227,0,0,0,697.6,469.043c-.447-.394-.878-.807-1.316-1.211l.2-.206a152.837,152.837,0,0,1,17.077,15.349,76.539,76.539,0,0,1-1.2-16.672,19.463,19.463,0,0,0-6.752-4.217,10.944,10.944,0,0,0-6.078-.708,21.153,21.153,0,0,0-7.751,3.288C687.941,467.377,685.663,471.318,683.257,475.227Zm-27.4,115.667c.293.025.583.061.874.076q15.925.815,31.849,1.628c2.7.137,5.394.234,8.09.379q11.563.622,23.125,1.268c.457.025.914.015,1.373.019C703.588,590.9,686.787,585.1,670,578.971c-1.679,2.683-3.1,5.539-5.682,7.523A25.357,25.357,0,0,1,655.859,590.894ZM615.785,559.3a1.9,1.9,0,0,0,.118-.43,12.978,12.978,0,0,1,2.574-9.865,34.353,34.353,0,0,1,2.947-3.292c1.409-1.392,2.89-2.708,4.364-4.031a8.106,8.106,0,0,0,2.837-5.076,29.887,29.887,0,0,0,.246-4.65c-.08-2.483-.428-4.958-.455-7.439a50.319,50.319,0,0,1,.408-6.287,31.648,31.648,0,0,1,.843-3.641,2.437,2.437,0,0,0-.777.83c-1.219,2.258-2.5,4.488-3.6,6.8-.863,1.822-1.5,3.751-2.22,5.642a11.465,11.465,0,0,1-4.989,6c-1.049.621-2.058,1.318-3.045,2.032a8.244,8.244,0,0,0-2.917,3.884,17.326,17.326,0,0,0,.059,13.189,61.372,61.372,0,0,0,3.05,5.661A5.022,5.022,0,0,0,615.785,559.3Zm48.087,13.831a120.8,120.8,0,0,1-46.491-13.292,5.651,5.651,0,0,0,1.481,3.61,37.321,37.321,0,0,0,19.5,11.788c6.811,1.755,13.806,2.207,20.764,2.989,1.546-1.575,3.081-3.136,4.608-4.7C663.807,573.449,663.814,573.305,663.873,573.133Zm-21.049,15.7.076.215c1.881-.164,3.764-.335,5.647-.489a47.707,47.707,0,0,0,8.513-1.106,15.69,15.69,0,0,0,9.387-6.422c.634-.946,1.327-1.858,1.883-2.847a38.8,38.8,0,0,1,8.408-10.674,4.139,4.139,0,0,0,.421-.579c-.539.194-.849.278-1.135.411a37.51,37.51,0,0,0-10.177,6.976,55.9,55.9,0,0,0-7.216,7.949,10.339,10.339,0,0,1-6.658,4.221c-2.6.543-5.162,1.243-7.738,1.887C643.757,588.491,643.294,588.676,642.824,588.83Z" transform="translate(0 0)" fill="#4c313c"/>
      <path id="Path_21" data-name="Path 21" d="M695.5,497.938a11.9,11.9,0,0,1-1.693-.533c-2.919-1.4-5.849-2.786-8.722-4.284a181.109,181.109,0,0,1-19.237-11.361c-1.626-1.125-3.174-2.363-4.749-3.564-.324-.246-.607-.55-.918-.834a.99.99,0,0,1,.169-.128.156.156,0,0,1,.118-.008c10.937,8.138,22.959,14.416,35.149,20.413Z" transform="translate(56.611 64.98)" fill="#4c313c"/>
    </g>
  </g>
</svg>
